<svg xmlns="http://www.w3.org/2000/svg" version="1.1" xmlns:xlink="http://www.w3.org/1999/xlink" xmlns:svgjs="http://svgjs.dev/svgjs" width="1500" height="937" viewBox="0 0 1500 937"><g transform="matrix(1,0,0,1,0,0)"><svg viewBox="0 0 512 320" data-background-color="#ffffff" preserveAspectRatio="xMidYMid meet" height="937" width="1500" xmlns="http://www.w3.org/2000/svg" xmlns:xlink="http://www.w3.org/1999/xlink"><g id="tight-bounds" transform="matrix(1,0,0,1,0,0)"><svg viewBox="0 0 512 320" height="320" width="512"><rect width="512" height="320" fill="url(#66a0c38d-4227-420a-8e29-9a155508065d)" mask="url(#eaf682e8-b9fa-4b3d-8db9-16e34bdb289d)" data-fill-palette-color="tertiary"></rect><g><svg></svg></g><g><svg viewBox="0 0 512 320" height="320" width="512"><g><path d="M96 160c0-88.366 71.634-160 160-160 88.366 0 160 71.634 160 160 0 88.366-71.634 160-160 160-88.366 0-160-71.634-160-160z" fill="url(#66a0c38d-4227-420a-8e29-9a155508065d)" fill-rule="nonzero" stroke="none" stroke-width="1" stroke-linecap="butt" stroke-linejoin="miter" stroke-miterlimit="10" stroke-dasharray="" stroke-dashoffset="0" font-family="none" font-weight="none" font-size="none" text-anchor="none" style="mix-blend-mode: normal" data-fill-palette-color="tertiary"></path></g><g transform="matrix(1,0,0,1,153.6,137.1032980332829)"><svg viewBox="0 0 204.8 45.7934039334342" height="45.7934039334342" width="204.8"><g><svg viewBox="0 0 204.8 45.7934039334342" height="45.7934039334342" width="204.8"><g><svg viewBox="0 0 204.8 45.7934039334342" height="45.7934039334342" width="204.8"><g id="textblocktransform"><svg viewBox="0 0 204.8 45.7934039334342" height="45.7934039334342" width="204.8" id="textblock"><g><svg viewBox="0 0 204.8 45.7934039334342" height="45.7934039334342" width="204.8"><g transform="matrix(1,0,0,1,0,0)"><svg width="204.8" viewBox="0.25 -36.55 165.24 36.949999999999996" height="45.7934039334342" data-palette-color="#ffffff"><path d="M29.2 0L19.6 0 14.25-7.75 9.75 0 0.5 0 9.7-14.25 0.25-27.9 9.85-27.9 15.2-20.2 19.7-27.9 28.95-27.9 19.6-13.85 29.2 0ZM45.2 0.4Q41.1 0.4 37.82-1.35 34.55-3.1 32.67-6.35 30.8-9.6 30.8-13.95L30.8-13.95Q30.8-18.25 32.7-21.53 34.6-24.8 37.9-26.55 41.2-28.3 45.3-28.3L45.3-28.3Q49.4-28.3 52.7-26.55 56-24.8 57.9-21.53 59.8-18.25 59.8-13.95L59.8-13.95Q59.8-9.65 57.87-6.38 55.95-3.1 52.62-1.35 49.3 0.4 45.2 0.4L45.2 0.4ZM45.2-7Q47.65-7 49.37-8.8 51.1-10.6 51.1-13.95L51.1-13.95Q51.1-17.3 49.42-19.1 47.75-20.9 45.3-20.9L45.3-20.9Q42.8-20.9 41.15-19.13 39.5-17.35 39.5-13.95L39.5-13.95Q39.5-10.6 41.12-8.8 42.75-7 45.2-7L45.2-7ZM72.9-23.25Q74.4-25.55 76.65-26.88 78.9-28.2 81.65-28.2L81.65-28.2 81.65-19.15 79.3-19.15Q76.09-19.15 74.5-17.78 72.9-16.4 72.9-12.95L72.9-12.95 72.9 0 64.34 0 64.34-27.9 72.9-27.9 72.9-23.25ZM105.59-21.1L93.74-7.05 105.84-7.05 105.84 0 84.19 0 84.19-6.8 95.79-20.85 84.29-20.85 84.29-27.9 105.59-27.9 105.59-21.1ZM135.39-36.55L135.39-29.05 119.79-29.05 119.79-22.15Q120.79-23.25 122.59-23.95 124.39-24.65 126.49-24.65L126.49-24.65Q130.24-24.65 132.72-22.95 135.19-21.25 136.34-18.55 137.49-15.85 137.49-12.7L137.49-12.7Q137.49-6.85 134.19-3.43 130.89 0 124.89 0L124.89 0Q120.89 0 117.94-1.38 114.99-2.75 113.39-5.2 111.79-7.65 111.64-10.85L111.64-10.85 119.99-10.85Q120.29-9.3 121.44-8.28 122.59-7.25 124.59-7.25L124.59-7.25Q126.94-7.25 128.09-8.75 129.24-10.25 129.24-12.75L129.24-12.75Q129.24-15.2 128.04-16.5 126.84-17.8 124.54-17.8L124.54-17.8Q122.84-17.8 121.74-16.98 120.64-16.15 120.29-14.8L120.29-14.8 112.04-14.8 112.04-36.55 135.39-36.55ZM165.49-36.45L165.49-30.1 152.94 0 144.19 0 156.89-29.15 141.34-29.15 141.34-36.45 165.49-36.45Z" opacity="1" transform="matrix(1,0,0,1,0,0)" fill="#ffffff" class="wordmark-text-0" data-fill-palette-color="quaternary" id="text-0"></path></svg></g></svg></g></svg></g></svg></g><g></g></svg></g></svg></g></svg></g><defs></defs><mask id="eaf682e8-b9fa-4b3d-8db9-16e34bdb289d"><g id="SvgjsG4162"><svg viewBox="0 0 512 320" height="320" width="512"><g><svg></svg></g><g><svg viewBox="0 0 512 320" height="320" width="512"><g><path d="M96 160c0-88.366 71.634-160 160-160 88.366 0 160 71.634 160 160 0 88.366-71.634 160-160 160-88.366 0-160-71.634-160-160z" fill="white" fill-rule="nonzero" stroke="none" stroke-width="1" stroke-linecap="butt" stroke-linejoin="miter" stroke-miterlimit="10" stroke-dasharray="" stroke-dashoffset="0" font-family="none" font-weight="none" font-size="none" text-anchor="none" style="mix-blend-mode: normal"></path></g><g transform="matrix(1,0,0,1,153.6,137.1032980332829)"><svg viewBox="0 0 204.8 45.7934039334342" height="45.7934039334342" width="204.8"><g><svg viewBox="0 0 204.8 45.7934039334342" height="45.7934039334342" width="204.8"><g><svg viewBox="0 0 204.8 45.7934039334342" height="45.7934039334342" width="204.8"><g id="SvgjsG4161"><svg viewBox="0 0 204.8 45.7934039334342" height="45.7934039334342" width="204.8" id="SvgjsSvg4160"><g><svg viewBox="0 0 204.8 45.7934039334342" height="45.7934039334342" width="204.8"><g transform="matrix(1,0,0,1,0,0)"><svg width="204.8" viewBox="0.25 -36.55 165.24 36.949999999999996" height="45.7934039334342" data-palette-color="#ffffff"><path d="M29.2 0L19.6 0 14.25-7.75 9.75 0 0.5 0 9.7-14.25 0.25-27.9 9.85-27.9 15.2-20.2 19.7-27.9 28.95-27.9 19.6-13.85 29.2 0ZM45.2 0.4Q41.1 0.4 37.82-1.35 34.55-3.1 32.67-6.35 30.8-9.6 30.8-13.95L30.8-13.95Q30.8-18.25 32.7-21.53 34.6-24.8 37.9-26.55 41.2-28.3 45.3-28.3L45.3-28.3Q49.4-28.3 52.7-26.55 56-24.8 57.9-21.53 59.8-18.25 59.8-13.95L59.8-13.95Q59.8-9.65 57.87-6.38 55.95-3.1 52.62-1.35 49.3 0.4 45.2 0.4L45.2 0.4ZM45.2-7Q47.65-7 49.37-8.8 51.1-10.6 51.1-13.95L51.1-13.95Q51.1-17.3 49.42-19.1 47.75-20.9 45.3-20.9L45.3-20.9Q42.8-20.9 41.15-19.13 39.5-17.35 39.5-13.95L39.5-13.95Q39.5-10.6 41.12-8.8 42.75-7 45.2-7L45.2-7ZM72.9-23.25Q74.4-25.55 76.65-26.88 78.9-28.2 81.65-28.2L81.65-28.2 81.65-19.15 79.3-19.15Q76.09-19.15 74.5-17.78 72.9-16.4 72.9-12.95L72.9-12.95 72.9 0 64.34 0 64.34-27.9 72.9-27.9 72.9-23.25ZM105.59-21.1L93.74-7.05 105.84-7.05 105.84 0 84.19 0 84.19-6.8 95.79-20.85 84.29-20.85 84.29-27.9 105.59-27.9 105.59-21.1ZM135.39-36.55L135.39-29.05 119.79-29.05 119.79-22.15Q120.79-23.25 122.59-23.95 124.39-24.65 126.49-24.65L126.49-24.65Q130.24-24.65 132.72-22.95 135.19-21.25 136.34-18.55 137.49-15.85 137.49-12.7L137.49-12.7Q137.49-6.85 134.19-3.43 130.89 0 124.89 0L124.89 0Q120.89 0 117.94-1.38 114.99-2.75 113.39-5.2 111.79-7.65 111.64-10.85L111.64-10.85 119.99-10.85Q120.29-9.3 121.44-8.28 122.59-7.25 124.59-7.25L124.59-7.25Q126.94-7.25 128.09-8.75 129.24-10.25 129.24-12.75L129.24-12.75Q129.24-15.2 128.04-16.5 126.84-17.8 124.54-17.8L124.54-17.8Q122.84-17.8 121.74-16.98 120.64-16.15 120.29-14.8L120.29-14.8 112.04-14.8 112.04-36.55 135.39-36.55ZM165.49-36.45L165.49-30.1 152.94 0 144.19 0 156.89-29.15 141.34-29.15 141.34-36.45 165.49-36.45Z" opacity="1" transform="matrix(1,0,0,1,0,0)" fill="black" class="wordmark-text-0" id="SvgjsPath4159"></path></svg></g></svg></g></svg></g></svg></g><g></g></svg></g></svg></g></svg></g><defs><mask></mask></defs></svg><rect width="512" height="320" fill="black" stroke="none" visibility="hidden"></rect></g></mask><linearGradient x1="0" x2="1" y1="0.5" y2="0.5" id="66a0c38d-4227-420a-8e29-9a155508065d"><stop stop-color="#ffa62e" offset="0"></stop><stop stop-color="#f71b3d" offset="1"></stop></linearGradient></svg><rect width="512" height="320" fill="none" stroke="none" visibility="hidden"></rect></g></svg></g></svg>